<?xml version="1.0" encoding="UTF-8"?>
<svg width="100px" height="100px" viewBox="0 0 100 100" version="1.1" xmlns="http://www.w3.org/2000/svg" xmlns:xlink="http://www.w3.org/1999/xlink">
    <!-- Generator: Sketch 54.1 (76490) - https://sketchapp.com -->
    <title>NeuralBC1</title>
    <desc>Created with Sketch.</desc>
    <g id="NeuralBC1" stroke="none" stroke-width="1" fill="none" fill-rule="evenodd">
        <g fill="#3F3B3A" fill-rule="nonzero" id="Path">
            <path d="M100,38.1819744 C100,33.3687768 96.02783,29.4663348 91.1265448,29.4642857 L20.5357143,29.4642857 L20.5357143,39.9559443 L41.8274718,39.9559443 L41.8274718,40.0004791 L89.274759,40.0004791 L89.274759,89.4675172 L41.8274718,89.4675172 L41.8274718,71.1228875 L31.0984517,71.1228875 L31.0984517,90.495529 C31.0984515,93.0169144 32.1186574,95.4349762 33.9345298,97.2175168 C35.7504022,99.0000575 38.213116,100.000984 40.780646,99.9999993 L91.0434034,99.9999993 C95.9858208,99.9999993 99.9924417,96.0653872 99.9924417,91.2117971 L100,38.1819744 Z"></path>
            <path d="M43.8377385,67.8571429 L59.8382712,67.8571429 C64.2669717,67.8571429 67.8571429,64.2661844 67.8571429,59.8365126 L67.8571429,42.4069945 L57.2819071,42.4069945 L57.2819071,57.2944753 L10.5640726,57.2944753 L10.5640726,10.566395 L57.278186,10.566395 L57.278186,26.07915 L67.8422586,26.07915 L67.8422586,11.2735503 C67.8422601,8.28168479 66.6532432,5.41252115 64.537092,3.29800013 C62.4209408,1.1834791 59.5512306,-0.00295768374 56.5600226,5.53733836e-06 L0,0 L0,67.8571429 L43.8377385,67.8571429 Z"></path>
        </g>
    </g>
</svg>