<?xml version="1.0" encoding="UTF-8"?>
<svg width="481px" height="108px" viewBox="0 0 481 108" version="1.1" xmlns="http://www.w3.org/2000/svg" xmlns:xlink="http://www.w3.org/1999/xlink">
    <!-- Generator: Sketch 54.1 (76490) - https://sketchapp.com -->
    <title>logo</title>
    <desc>Created with Sketch.</desc>
    <g id="Page-1" stroke="none" stroke-width="1" fill="none" fill-rule="evenodd">
        <g id="190520_Web_1920" transform="translate(-470.000000, -371.000000)" fill="#272727" fill-rule="nonzero">
            <g id="main" transform="translate(0.000000, -181.000000)">
                <g id="main-tittle" transform="translate(470.000000, 548.000000)">
                    <g id="logo" transform="translate(0.000000, 4.624277)">
                        <path d="M146.428571,92.5405405 L146.428571,20.2432432 L155.978173,20.2432432 L170.97623,63.8037346 L171.176105,63.8037346 L171.176105,20.2432432 L181.110652,20.2432432 L181.110652,92.5405405 L171.760926,92.5405405 L156.562994,49.0803657 L156.370521,49.0803657 L156.370521,92.5405405 L146.428571,92.5405405 Z M192.671346,92.5405405 L192.671346,20.2432432 L221.57308,20.2432432 L221.57308,29.9893727 L202.367878,29.9893727 L202.367878,51.2101612 L219.101982,51.2101612 L219.101982,60.9640072 L202.367878,60.9640072 L202.367878,82.1847957 L221.57308,82.1847957 L221.57308,92.5405405 L192.671346,92.5405405 Z M262.034187,20.2432432 L262.034187,75.8203966 C262.089267,80.2426955 260.419673,84.4976767 257.410225,87.6046202 C255.941253,89.1440263 254.202386,90.3729154 252.288749,91.2240604 C250.343985,92.1022399 248.246605,92.5503415 246.128344,92.5402204 C244.023885,92.5542681 241.940067,92.1058688 240.011837,91.2240604 C236.209148,89.4715737 233.171158,86.2941922 231.495554,82.3170238 C230.648145,80.2670038 230.221908,78.0536757 230.24445,75.8203966 L230.24445,20.2432432 L240.063052,20.2432432 L240.063052,74.8179724 C240.063052,77.3686702 240.638609,79.2485344 241.789722,80.4575651 C244.221542,82.8645132 248.027829,82.8645132 250.45965,80.4575651 C251.61564,79.2485344 252.193635,77.3686702 252.193635,74.8179724 L252.193635,20.2432432 L262.034187,20.2432432 Z M273.596201,92.5405405 L273.596201,20.2432432 L289.136885,20.2432432 C300.50554,20.2432432 306.189868,27.3168394 306.189868,41.4640318 C306.285113,45.1842458 305.654753,48.8848149 304.339101,52.3290755 C302.991401,55.4404022 300.709459,57.9779789 297.857815,59.5364269 L308.278282,92.5405405 L298.037851,92.5405405 L289.021662,61.6739391 L283.260519,61.6739391 L283.260519,92.5405405 L273.596201,92.5405405 Z M283.260519,29.9893727 L283.260519,52.537425 L288.755209,52.537425 C290.149835,52.596942 291.540056,52.3337472 292.831218,51.76576 C293.799596,51.2955468 294.621845,50.5376609 295.200488,49.5819479 C295.741165,48.4949729 296.087959,47.3095003 296.223091,46.0863053 C296.429359,44.488415 296.525638,42.8764286 296.511148,41.2633988 C296.525638,39.6503691 296.429359,38.0383827 296.223091,36.4404924 C296.07064,35.1713838 295.686457,33.9468644 295.092466,32.8368166 C293.887427,30.9385207 291.611776,29.9893727 288.265512,29.9893727 L283.260519,29.9893727 Z M311.168456,92.5405405 L327.133639,20.2432432 L335.665701,20.2432432 L351.630884,92.5405405 L341.389356,92.5405405 L338.382529,77.0069233 L324.424442,77.0069233 L321.409983,92.5405405 L311.168456,92.5405405 Z M336.474644,67.2453606 L331.45309,41.0550493 L331.247039,41.0550493 L326.225485,67.2453606 L336.474644,67.2453606 Z M363.191577,92.5405405 L363.191577,20.2432432 L372.895334,20.2432432 L372.895334,82.1847957 L392.093311,82.1847957 L392.093311,92.5405405 L363.191577,92.5405405 Z M406.544178,92.5017963 L406.544178,20.2500574 L420.881992,20.2500574 C423.636234,20.1763436 426.375367,20.701367 428.928724,21.7924149 C431.004254,22.7012471 432.861148,24.0870844 434.363926,25.8488152 C435.771843,27.5349398 436.808544,29.5285004 437.399739,31.6866385 C438.01179,33.911896 438.31969,36.2177984 438.31414,38.534706 L438.31414,41.1567138 C438.339268,42.8262424 438.194576,44.4938014 437.882543,46.1308169 C437.629818,47.3786406 437.190282,48.576098 436.580435,49.6782392 C435.334836,51.7267382 433.612211,53.4046919 431.576831,54.5520891 C433.781092,55.5809687 435.587158,57.3707075 436.697479,59.6264454 C437.789883,61.8577226 438.336086,64.9013082 438.336086,68.757202 L438.336086,72.8136023 C438.336086,79.1783978 436.873044,84.06253 433.946959,87.465999 C431.020875,90.8694679 426.35377,92.56092 419.945645,92.5403553 L406.544178,92.5017963 Z M416.361192,29.990021 L416.361192,49.8787457 L420.786894,49.8787457 C424.059232,49.8787457 426.253796,49.0175961 427.370584,47.2952968 C428.487373,45.5729976 429.050645,43.0538136 429.060398,39.7377449 C429.060398,36.4936529 428.433728,34.0567279 427.180389,32.4269701 C425.927049,30.7972123 423.664211,29.984904 420.391873,29.9900452 L416.361192,29.990021 Z M416.361192,59.0095023 L416.361192,82.1448655 L420.596699,82.1448655 C422.198852,82.2245684 423.796636,81.9103927 425.263804,81.2271627 C426.334879,80.6674084 427.223631,79.7841677 427.816812,78.6899846 C428.425385,77.4988555 428.784591,76.1839977 428.870203,74.8340907 C429.001876,73.3482863 429.067713,71.7262403 429.067713,69.9679527 C429.079928,68.3713843 428.982134,66.7759888 428.775105,65.1943561 C428.626927,63.971682 428.232879,62.7964392 427.619302,61.747187 C426.971333,60.7942793 426.066523,60.0688065 425.022402,59.6650043 C423.627689,59.1745342 422.161239,58.9499537 420.691797,59.0017906 L416.361192,59.0095023 Z M480.655709,71.6534316 L480.655709,76.0418648 C480.666285,78.1881749 480.255037,80.3142358 479.447032,82.2904471 C478.659355,84.2386922 477.531957,86.0197704 476.121339,87.544419 C474.706295,89.0742983 473.023277,90.3110906 471.162102,91.1887926 C469.239028,92.0927795 467.149712,92.5538561 465.038139,92.5402479 C463.117611,92.5294632 461.206656,92.2589116 459.353695,91.7354487 C457.440087,91.213481 455.661524,90.2593615 454.145397,88.9414289 C452.540834,87.5238195 451.244979,85.7692352 450.343559,83.7937512 C449.273427,81.2633905 448.772443,78.5139442 448.878496,75.7533519 L448.878496,36.5839279 C448.859876,34.3632462 449.252788,32.1595108 450.035896,30.0923874 C450.772608,28.1471005 451.887128,26.3794679 453.310311,24.899155 C454.75284,23.4278346 456.463601,22.2689654 458.342802,21.4901472 C460.410947,20.635592 462.621469,20.2124548 464.847681,20.2449862 C469.477279,20.2449862 473.235166,21.8090299 476.121339,24.9371173 C477.561463,26.5098424 478.691196,28.359088 479.447032,30.3809004 C480.266535,32.5579413 480.676796,34.8773318 480.655709,37.2141009 L480.655709,41.2153194 L470.825137,41.2153194 L470.825137,37.7835343 C470.863036,35.9095542 470.28434,34.0780227 469.184267,32.5903019 C468.150733,31.1606162 466.512063,30.3397099 464.789078,30.3884928 C462.342423,30.3884928 460.723529,31.1477373 459.917745,32.7421508 C459.05371,34.5919384 458.641179,36.6333471 458.716393,38.6870352 L458.716393,75.0472545 C458.654404,76.8719275 459.104825,78.676013 460.012974,80.2404869 C460.884686,81.6450892 462.437653,82.3360017 464.693849,82.3360017 C465.397757,82.3267746 466.096424,82.2090689 466.766913,81.9867493 C467.520629,81.7468616 468.222204,81.357496 468.832652,80.8402901 C469.471893,80.2304848 469.972322,79.480995 470.297715,78.6460734 C470.712486,77.5306411 470.909197,76.3408812 470.876414,75.1459563 L470.876414,71.6534316 L480.655709,71.6534316 Z M106.936416,38.5721596 L106.936416,97.2697183 C106.932293,102.641844 102.707216,106.995752 97.4940487,107 L44.4732491,107 C38.8347995,106.995751 34.2649622,102.286571 34.260839,96.4761957 L34.260839,75.0356778 L45.5797181,75.0356778 L45.5797181,95.3359885 L95.5876325,95.3359885 L95.5876325,40.5906345 L45.5498135,40.5906345 L45.5498135,40.5444099 L23.1213873,40.5444099 L23.1213873,28.9189189 L97.5688102,28.9189189 C102.742396,28.9189189 106.936416,33.240822 106.936416,38.5721596 Z M46.6902736,72.2972941 L-2.84217094e-14,72.2972973 L-2.84217094e-14,7.81597009e-14 L60.2565448,7.81597009e-14 C66.883942,0.00410609231 72.2543333,5.38101997 72.254332,12.012359 L72.254332,27.7883427 L61.0073357,27.7883427 L61.0073357,11.2536837 L11.2469963,11.2536837 L11.2469963,61.0436103 L61.0073357,61.0436103 L61.0073357,45.1560568 L72.254332,45.1560568 L72.254332,63.7510398 C72.2563066,66.0182525 71.3570695,68.1931739 69.7548601,69.7963359 C68.1526507,71.399498 65.9790217,72.2992698 63.7131563,72.2972941 L46.6902736,72.2972941 Z" id="Combined-Shape"></path>
                    </g>
                </g>
            </g>
        </g>
    </g>
</svg>