<?xml version="1.0" encoding="UTF-8"?>
<svg width="30px" height="30px" viewBox="0 0 30 30" version="1.1" xmlns="http://www.w3.org/2000/svg" xmlns:xlink="http://www.w3.org/1999/xlink">
    <!-- Generator: Sketch 54.1 (76490) - https://sketchapp.com -->
    <title>sns-Twiter1</title>
    <desc>Created with Sketch.</desc>
    <g id="Symbols" stroke="none" stroke-width="1" fill="none" fill-rule="evenodd">
        <g id="sns-Twiter1">
            <rect id="Rectangle-Copy-7" fill="#3E3E3E" x="0" y="0" width="30" height="30"></rect>
            <g id="twitter" transform="translate(7.000000, 7.000000)" fill="#8C8C8C">
                <g transform="translate(0.000000, 0.680000)" id="Path">
                    <path d="M17,1.83316403 C16.3610866,2.13960317 15.6854136,2.34217823 14.994,2.43458752 C15.723447,1.95281049 16.2700809,1.19488697 16.5325,0.301413573 C15.8470193,0.752540535 15.0966478,1.07038696 14.314,1.24113778 C13.238051,-0.0488377747 11.5096121,-0.372126141 10.1097213,0.454766659 C8.70983053,1.28165946 7.99213963,3.049837 8.364,4.75570632 C5.56100649,4.59896693 2.95011088,3.13351499 1.1815,0.724289467 C0.874766823,1.31647412 0.713591388,1.98711187 0.714,2.66951858 C0.711790893,3.95666958 1.29252065,5.15959461 2.261,5.87397812 C1.7067808,5.85730689 1.1644028,5.69289214 0.68,5.39471878 L0.68,5.44170499 C0.688563649,7.2722693 1.86101639,8.84343824 3.485,9.20060182 C3.18176716,9.3026244 2.86694375,9.3564148 2.55,9.36035493 C2.33060669,9.35752122 2.11175891,9.33552587 1.8955,9.29457424 C2.35532939,10.8602893 3.66227384,11.9317055 5.151,11.963391 C3.92462221,13.0302285 2.41050097,13.6124715 0.85,13.6173056 C0.565874965,13.6183356 0.281975275,13.5995035 0,13.5609221 C1.5932641,14.6982299 3.44999092,15.3019708 5.3465,15.2994119 C7.99022358,15.3297648 10.5340313,14.1840354 12.4059232,12.1198524 C14.2778152,10.0556693 15.320673,7.24629089 15.3,4.32343318 C15.3,4.16368007 15.3,3.99452971 15.3,3.82537935 C15.966991,3.2754629 16.5422533,2.60131797 17,1.83316403 L17,1.83316403 Z" fill-rule="nonzero"></path>
                </g>
            </g>
        </g>
    </g>
</svg>