<?xml version="1.0" encoding="UTF-8"?>
<svg width="30px" height="30px" viewBox="0 0 30 30" version="1.1" xmlns="http://www.w3.org/2000/svg" xmlns:xlink="http://www.w3.org/1999/xlink">
    <!-- Generator: Sketch 54.1 (76490) - https://sketchapp.com -->
    <title>sns-Twiter2</title>
    <desc>Created with Sketch.</desc>
    <g id="Symbols" stroke="none" stroke-width="1" fill="none" fill-rule="evenodd">
        <g id="sns-Twiter2">
            <rect id="Rectangle-Copy-7" fill="#8C8C8C" x="0" y="0" width="30" height="30"></rect>
            <g id="twitter" transform="translate(7.000000, 7.000000)" fill="#272727">
                <g transform="translate(0.000000, 0.826389)" id="Path">
                    <path d="M17,1.83882195 C16.3610866,2.14620688 15.6854136,2.34940717 14.994,2.44210168 C15.723447,1.95883768 16.2700809,1.19857489 16.5325,0.302343862 C15.8470193,0.754863191 15.0966478,1.07369063 14.314,1.24496845 C13.238051,-0.0489885085 11.5096121,-0.373274678 10.1097213,0.456170259 C8.70983053,1.2856152 7.99213963,3.05925008 8.364,4.77038442 C5.56100649,4.61316127 2.95011088,3.14318633 1.1815,0.726524928 C0.874766823,1.32053731 0.713591388,1.99324493 0.714,2.67775783 C0.711790893,3.96888153 1.29252065,5.17551929 2.261,5.89210769 C1.7067808,5.875385 1.1644028,5.71046279 0.68,5.41136914 L0.68,5.45850037 C0.688563649,7.29471457 1.86101639,8.87073281 3.485,9.22899874 C3.18176716,9.3313362 2.86694375,9.38529262 2.55,9.38924492 C2.33060669,9.38640246 2.11175891,9.36433922 1.8955,9.3232612 C2.35532939,10.8938087 3.66227384,11.9685317 5.151,12.000315 C3.92462221,13.0704453 2.41050097,13.6544853 0.85,13.6593343 C0.565874965,13.6603675 0.281975275,13.6414773 0,13.6027768 C1.5932641,14.7435948 3.44999092,15.3491991 5.3465,15.3466323 C7.99022358,15.3770788 10.5340313,14.2278133 12.4059232,12.1572593 C14.2778152,10.0867053 15.320673,7.26865599 15.3,4.33677711 C15.3,4.17653093 15.3,4.0068585 15.3,3.83718608 C15.966991,3.28557235 16.5422533,2.60934673 17,1.83882195 L17,1.83882195 Z" fill-rule="nonzero"></path>
                </g>
            </g>
        </g>
    </g>
</svg>