<?xml version="1.0" encoding="UTF-8"?>
<svg width="30px" height="30px" viewBox="0 0 30 30" version="1.1" xmlns="http://www.w3.org/2000/svg" xmlns:xlink="http://www.w3.org/1999/xlink">
    <!-- Generator: Sketch 54.1 (76490) - https://sketchapp.com -->
    <title>sns-youtube2</title>
    <desc>Created with Sketch.</desc>
    <g id="Symbols" stroke="none" stroke-width="1" fill="none" fill-rule="evenodd">
        <g id="sns-youtube2">
            <rect id="Rectangle" fill="#8C8C8C" x="0" y="0" width="30" height="30"></rect>
            <g id="youtube-copy" transform="translate(6.000000, 8.863636)" fill="#272727">
                <g id="youtube" transform="translate(0.523077, 0.272727)">
                    <path d="M15.6886942,4.03694124 C15.7239449,2.97703688 15.5008117,1.9250637 15.0400127,0.978699154 C14.7273664,0.590382764 14.2934711,0.328330362 13.8139334,0.238204701 C11.8304803,0.0512485575 9.83882128,-0.0253786361 7.84748926,0.0086514211 C5.86341229,-0.0269231791 3.87891878,0.0472311611 1.90243023,0.230799757 C1.51166721,0.304639317 1.1500439,0.495039333 0.861688484,0.778765652 C0.220135352,1.39337605 0.14885167,2.44487817 0.0775679889,3.33347151 C-0.0258559963,4.93113539 -0.0258559963,6.53421169 0.0775679889,8.13187557 C0.0981904786,8.63200979 0.169876008,9.12845568 0.291419033,9.61286447 C0.37736941,9.98686297 0.551264375,10.3328814 0.797533171,10.6199369 C1.08784878,10.9186938 1.45789405,11.1199248 1.85966002,11.1975226 C3.39647628,11.394582 4.94497278,11.4762482 6.49309931,11.4418858 C8.98802816,11.4789105 11.1764372,11.4418858 13.7640348,11.2345473 C14.1756664,11.1617166 14.5561326,10.9602278 14.8546751,10.6569617 C15.0542414,10.4495615 15.2033093,10.1957062 15.2895056,9.9164672 C15.5444362,9.10386137 15.6696489,8.2533983 15.6601807,7.39878606 C15.6886942,6.98410917 15.6886942,4.48123792 15.6886942,4.03694124 Z M6.23647806,7.84308273 L6.23647806,3.25942207 L10.456472,5.56235982 C9.27316289,6.24361471 7.71205026,7.01372894 6.23647806,7.84308273 Z" id="Shape" fill-rule="nonzero"></path>
                </g>
            </g>
        </g>
    </g>
</svg>